<mxfile host="app.diagrams.net" modified="2023-09-05T05:23:09.334Z" agent="Mozilla/5.0 (Macintosh; Intel Mac OS X 10_15_7) AppleWebKit/537.36 (KHTML, like Gecko) Chrome/116.0.0.0 Safari/537.36" version="21.6.8" etag="vbXppsKXKH-DkD5ZZQkt" type="github">
  <diagram name="第 1 页" id="afo4nbAz8dNRUQYNDj78">
    <mxGraphModel>
      <root>
        <mxCell id="0" />
        <mxCell id="1" parent="0" />
      </root>
    </mxGraphModel>
  </diagram>
</mxfile>
